<mxfile host="app.diagrams.net" modified="2021-03-14T14:18:34.905Z" agent="5.0 (Macintosh; Intel Mac OS X 10_15_6) AppleWebKit/605.1.15 (KHTML, like Gecko) Version/14.0.3 Safari/605.1.15" etag="HExDC55AG_RHJRKomfsk" version="14.4.8" type="github">
  <diagram id="FlF11ExsXfv50QuzLHLa" name="第 1 页">
    <mxGraphModel dx="937" dy="541" grid="1" gridSize="10" guides="1" tooltips="1" connect="1" arrows="1" fold="1" page="1" pageScale="1" pageWidth="827" pageHeight="1169" math="0" shadow="0">
      <root>
        <mxCell id="0" />
        <mxCell id="1" parent="0" />
        <mxCell id="HEBwGWpLpltP4USdSfCo-23" value="" style="endArrow=none;html=1;fontSize=16;exitX=0.5;exitY=0;exitDx=0;exitDy=0;entryX=0.5;entryY=1;entryDx=0;entryDy=0;fillColor=#fff2cc;strokeColor=#d6b656;" edge="1" parent="1">
          <mxGeometry width="50" height="50" relative="1" as="geometry">
            <mxPoint x="344.5" y="630" as="sourcePoint" />
            <mxPoint x="344.5" y="280" as="targetPoint" />
          </mxGeometry>
        </mxCell>
        <mxCell id="HEBwGWpLpltP4USdSfCo-22" value="" style="endArrow=none;html=1;fontSize=16;exitX=0.5;exitY=0;exitDx=0;exitDy=0;entryX=0.5;entryY=1;entryDx=0;entryDy=0;" edge="1" parent="1" source="HEBwGWpLpltP4USdSfCo-13" target="HEBwGWpLpltP4USdSfCo-14">
          <mxGeometry width="50" height="50" relative="1" as="geometry">
            <mxPoint x="90" y="370" as="sourcePoint" />
            <mxPoint x="140" y="320" as="targetPoint" />
          </mxGeometry>
        </mxCell>
        <mxCell id="HEBwGWpLpltP4USdSfCo-3" value="socket()" style="rounded=0;whiteSpace=wrap;html=1;fontSize=16;fillColor=#fff2cc;strokeColor=#d6b656;" vertex="1" parent="1">
          <mxGeometry x="300" y="230" width="90" height="50" as="geometry" />
        </mxCell>
        <mxCell id="HEBwGWpLpltP4USdSfCo-4" value="bind()" style="rounded=0;whiteSpace=wrap;html=1;fontSize=16;fillColor=#fff2cc;strokeColor=#d6b656;" vertex="1" parent="1">
          <mxGeometry x="300" y="310" width="90" height="50" as="geometry" />
        </mxCell>
        <mxCell id="HEBwGWpLpltP4USdSfCo-5" value="listen()" style="rounded=0;whiteSpace=wrap;html=1;fontSize=16;fillColor=#fff2cc;strokeColor=#d6b656;" vertex="1" parent="1">
          <mxGeometry x="300" y="390" width="90" height="50" as="geometry" />
        </mxCell>
        <mxCell id="HEBwGWpLpltP4USdSfCo-6" value="accept()" style="rounded=0;whiteSpace=wrap;html=1;fontSize=16;fillColor=#fff2cc;strokeColor=#d6b656;" vertex="1" parent="1">
          <mxGeometry x="300" y="470" width="90" height="50" as="geometry" />
        </mxCell>
        <mxCell id="HEBwGWpLpltP4USdSfCo-7" value="read()" style="rounded=0;whiteSpace=wrap;html=1;fontSize=16;fillColor=#fff2cc;strokeColor=#d6b656;" vertex="1" parent="1">
          <mxGeometry x="300" y="550" width="90" height="50" as="geometry" />
        </mxCell>
        <mxCell id="HEBwGWpLpltP4USdSfCo-8" value="wirte()" style="rounded=0;whiteSpace=wrap;html=1;fontSize=16;fillColor=#fff2cc;strokeColor=#d6b656;" vertex="1" parent="1">
          <mxGeometry x="300" y="630" width="90" height="50" as="geometry" />
        </mxCell>
        <mxCell id="HEBwGWpLpltP4USdSfCo-18" style="edgeStyle=orthogonalEdgeStyle;rounded=0;orthogonalLoop=1;jettySize=auto;html=1;fontSize=16;" edge="1" parent="1" source="HEBwGWpLpltP4USdSfCo-11" target="HEBwGWpLpltP4USdSfCo-6">
          <mxGeometry relative="1" as="geometry" />
        </mxCell>
        <mxCell id="HEBwGWpLpltP4USdSfCo-11" value="connect()" style="rounded=0;whiteSpace=wrap;html=1;fontSize=16;fillColor=#dae8fc;strokeColor=#6c8ebf;" vertex="1" parent="1">
          <mxGeometry x="120" y="470" width="90" height="50" as="geometry" />
        </mxCell>
        <mxCell id="HEBwGWpLpltP4USdSfCo-19" style="edgeStyle=orthogonalEdgeStyle;rounded=0;orthogonalLoop=1;jettySize=auto;html=1;entryX=0;entryY=0.5;entryDx=0;entryDy=0;fontSize=16;" edge="1" parent="1" source="HEBwGWpLpltP4USdSfCo-12" target="HEBwGWpLpltP4USdSfCo-7">
          <mxGeometry relative="1" as="geometry" />
        </mxCell>
        <mxCell id="HEBwGWpLpltP4USdSfCo-12" value="write()" style="rounded=0;whiteSpace=wrap;html=1;fontSize=16;fillColor=#dae8fc;strokeColor=#6c8ebf;" vertex="1" parent="1">
          <mxGeometry x="120" y="550" width="90" height="50" as="geometry" />
        </mxCell>
        <mxCell id="HEBwGWpLpltP4USdSfCo-20" style="edgeStyle=orthogonalEdgeStyle;rounded=0;orthogonalLoop=1;jettySize=auto;html=1;entryX=0;entryY=0.5;entryDx=0;entryDy=0;fontSize=16;" edge="1" parent="1" source="HEBwGWpLpltP4USdSfCo-13" target="HEBwGWpLpltP4USdSfCo-8">
          <mxGeometry relative="1" as="geometry" />
        </mxCell>
        <mxCell id="HEBwGWpLpltP4USdSfCo-13" value="read()" style="rounded=0;whiteSpace=wrap;html=1;fontSize=16;fillColor=#dae8fc;strokeColor=#6c8ebf;" vertex="1" parent="1">
          <mxGeometry x="120" y="630" width="90" height="50" as="geometry" />
        </mxCell>
        <mxCell id="HEBwGWpLpltP4USdSfCo-14" value="socket()" style="rounded=0;whiteSpace=wrap;html=1;fontSize=16;fillColor=#dae8fc;strokeColor=#6c8ebf;" vertex="1" parent="1">
          <mxGeometry x="120" y="230" width="90" height="50" as="geometry" />
        </mxCell>
        <mxCell id="HEBwGWpLpltP4USdSfCo-15" value="客户端" style="text;html=1;align=center;verticalAlign=middle;resizable=0;points=[];autosize=1;fontSize=16;" vertex="1" parent="1">
          <mxGeometry x="135" y="200" width="60" height="20" as="geometry" />
        </mxCell>
        <mxCell id="HEBwGWpLpltP4USdSfCo-16" value="服务端" style="text;html=1;align=center;verticalAlign=middle;resizable=0;points=[];autosize=1;fontSize=16;" vertex="1" parent="1">
          <mxGeometry x="315" y="200" width="60" height="20" as="geometry" />
        </mxCell>
      </root>
    </mxGraphModel>
  </diagram>
</mxfile>
